<?xml version="1.0" encoding="UTF-8"?>
<svg width="52px" height="52px" viewBox="0 0 52 52" version="1.1" xmlns="http://www.w3.org/2000/svg" xmlns:xlink="http://www.w3.org/1999/xlink">
    <title>twitter</title>
    <defs>
        <polygon id="path-1" points="0 0 51.3632653 0 51.3632653 51.3632653 0 51.3632653"></polygon>
    </defs>
    <g id="页面-1" stroke="none" stroke-width="1" fill="none" fill-rule="evenodd">
        <g id="Seven" transform="translate(-2543.000000, -135.000000)">
            <g id="twitter" transform="translate(2543.000000, 135.000000)">
                <mask id="mask-2" fill="white">
                    <use xlink:href="#path-1"></use>
                </mask>
                <g id="Clip-2"></g>
                <path d="M49.9861026,12.2014103 C48.207529,12.966811 46.3231735,13.4722589 44.3939303,13.7012555 C46.4251277,12.5075139 47.94609,10.6358541 48.6757761,8.43155679 C46.7932185,9.505499 44.7068104,10.2875117 42.4855651,10.722883 C39.4728118,7.5731741 34.6705818,6.79626406 30.7804305,8.82933836 C26.8905112,10.8624127 24.8835554,15.1976988 25.8891791,19.3965736 C17.7928647,19.0229447 10.6169222,15.2223051 5.81469225,9.47647047 C4.94117993,10.9275568 4.48557558,12.5825798 4.49624655,14.2661779 C4.49624655,17.5754302 6.21839157,20.4841796 8.82750362,22.1930642 C7.28113976,22.1447589 5.76893463,21.7361484 4.41696815,21.0009101 L4.41696815,21.1189519 C4.41517032,25.6530722 7.6825773,29.560471 12.2282978,30.4602987 C10.7997787,30.834608 9.30346402,30.890624 7.84948531,30.6248882 C9.13284436,34.5043358 12.7932797,37.1602195 16.9634862,37.2374966 C13.5180363,39.8807937 9.26379582,41.315438 4.88434537,41.3112425 C4.11226534,41.3112425 3.3422731,41.2667359 2.56816327,41.1814646 C7.03350348,43.9766512 12.2253981,45.4602812 17.5275401,45.4564898 C35.4503171,45.4564898 45.2391414,30.9499851 45.2391414,18.3902134 C45.2391414,17.9857984 45.2391414,17.5774146 45.2095062,17.1710152 C47.121699,15.825781 48.771177,14.1554499 50.0791837,12.2399638 L49.9861026,12.2014103 Z" id="Fill-1" fill="white" mask="url(#mask-2)"></path>
            </g>
        </g>
    </g>
</svg>